<?xml version="1.0" encoding="UTF-8" standalone="no"?>
<!-- Generator: Adobe Illustrator 19.0.0, SVG Export Plug-In . SVG Version: 6.00 Build 0)  -->

<svg
   xmlns:dc="http://purl.org/dc/elements/1.1/"
   xmlns:cc="http://creativecommons.org/ns#"
   xmlns:rdf="http://www.w3.org/1999/02/22-rdf-syntax-ns#"
   xmlns:svg="http://www.w3.org/2000/svg"
   xmlns="http://www.w3.org/2000/svg"
   xmlns:sodipodi="http://sodipodi.sourceforge.net/DTD/sodipodi-0.dtd"
   xmlns:inkscape="http://www.inkscape.org/namespaces/inkscape"
   version="1.1"
   x="0px"
   y="0px"
   viewBox="0 0 592.40001 109"
   xml:space="preserve"
   id="svg2"
   inkscape:version="0.91 r13725"
   sodipodi:docname="ofrete_logo.svg"
   width="592.40002"
   height="109"><metadata
     id="metadata29"><rdf:RDF><cc:Work
         rdf:about=""><dc:format>image/svg+xml</dc:format><dc:type
           rdf:resource="http://purl.org/dc/dcmitype/StillImage" /><dc:title /></cc:Work></rdf:RDF></metadata><defs
     id="defs27" /><sodipodi:namedview
     pagecolor="#ffffff"
     bordercolor="#666666"
     borderopacity="1"
     objecttolerance="10"
     gridtolerance="10"
     guidetolerance="10"
     inkscape:pageopacity="0"
     inkscape:pageshadow="2"
     inkscape:window-width="1855"
     inkscape:window-height="1056"
     id="namedview25"
     showgrid="false"
     inkscape:zoom="1"
     inkscape:cx="39.91928"
     inkscape:cy="85.201737"
     inkscape:window-x="65"
     inkscape:window-y="24"
     inkscape:window-maximized="1"
     inkscape:current-layer="svg2"
     fit-margin-top="0"
     fit-margin-left="0"
     fit-margin-right="0"
     fit-margin-bottom="0" /><style
     type="text/css"
     id="style4">
	.st0{fill-rule:evenodd;clip-rule:evenodd;fill:#CD642D;}
	.st1{fill-rule:evenodd;clip-rule:evenodd;fill:#2F4889;}
	.st2{fill:#C4692F;}
	.st3{fill:#2F4889;}
</style><path
     style="clip-rule:evenodd;fill:#e8690d;fill-rule:evenodd;fill-opacity:1"
     inkscape:connector-curvature="0"
     id="path7"
     d="M 54.3,0 C 12.9,0 0,38.7 0,66.4 0,93.4 14.4,109 39.7,109 81.1,109 93.8,70.5 93.8,42.6 93.9,15.5 79.5,0 54.3,0 l 0,0 z M 52.5,18 C 63.3,18 69,24.4 69,40.5 69,57.9 64,91 41.4,91 30.8,91 24.9,84.7 24.9,68.2 24.9,51.2 29.8,18 52.5,18 Z"
     class="st0" /><path
     style="clip-rule:evenodd;fill:#003e8b;fill-rule:evenodd;fill-opacity:1"
     inkscape:connector-curvature="0"
     id="path9"
     d="m 177.1,2.6 -61,0 -14.6,103.9 24.2,0 5.9,-41.3 30,0 2.4,-17.5 -30,0 3.9,-27.6 34.3,0 4.9,-17.5 0,0 z m 82.3,27.6 c 0,12.6 -4.6,24.8 -23.7,32.7 l 19.5,43.6 -26.4,0 L 213,67 l -10,-0.2 -5.5,39.7 -24.2,0 14.6,-103.9 33.4,0 c 25.2,0 38.1,10.3 38.1,27.6 l 0,0 z m -49.8,-10.4 -4.2,30 10.7,0 c 13.9,0 18.3,-9.9 18.3,-18.5 0,-8.1 -5.1,-11.6 -15.6,-11.6 l -9.2,0 0,0.1 z m 132.2,-17.2 -62.8,0 -14.6,103.9 62.8,0 2.4,-17.7 -38.5,0 3.7,-26.5 31.5,0 2.3,-17.2 -31.5,0 3.6,-24.9 36,0 5.1,-17.6 0,0 z m 84.7,0 -78.4,0 -2.7,18.9 26.6,0 -12,85 24.2,0 12,-85 25.1,0 5.2,-18.9 0,0 z m 72.3,0 -5.1,17.5 -36,0 -3.6,24.9 31.5,0 -2.3,17.2 -31.5,0 -3.8,26.5 38.6,0 -2.4,17.7 -62.9,0 14.6,-103.9 62.9,0 z"
     class="st1" /><polygon
     style="clip-rule:evenodd;fill:#e8690d;fill-rule:evenodd;fill-opacity:1"
     id="polygon11"
     points="621.6,140.2 662.9,140.2 694.2,186.3 662.9,231.8 621.6,231.8 651.3,186.3 "
     class="st0"
     transform="translate(-118.7,-132.1)" /><g
     id="objects"
     transform="translate(-118.7,-132.1)"
     style="fill:#003e8b;fill-opacity:1"><polygon
       class="st1"
       points="630.8,236.6 663.7,186.4 630.8,135.5 676.4,135.5 711.1,186.4 676.4,236.6 "
       id="polygon14"
       style="clip-rule:evenodd;fill:#003e8b;fill-rule:evenodd;fill-opacity:1" /></g></svg>